<mxfile host="app.diagrams.net" modified="2020-09-04T22:21:46.588Z" agent="5.0 (Macintosh; Intel Mac OS X 10_15_6) AppleWebKit/537.36 (KHTML, like Gecko) Chrome/85.0.4183.83 Safari/537.36" etag="pC1NBM7_y5AtAEVDFEim" version="13.6.6" type="github">
  <diagram id="qhHpzmp2tUydWUcnB4Fc" name="Page-1">
    <mxGraphModel dx="1186" dy="773" grid="1" gridSize="10" guides="1" tooltips="1" connect="1" arrows="1" fold="1" page="1" pageScale="1" pageWidth="850" pageHeight="1100" math="0" shadow="0">
      <root>
        <mxCell id="0" />
        <mxCell id="1" parent="0" />
        <mxCell id="v8HJ1O2Uti7qaJmyZi02-2" value="Armada Controller" style="rounded=1;whiteSpace=wrap;html=1;" parent="1" vertex="1">
          <mxGeometry x="200" y="150" width="440" height="80" as="geometry" />
        </mxCell>
        <mxCell id="v8HJ1O2Uti7qaJmyZi02-3" value="Alien Controller" style="rounded=1;whiteSpace=wrap;html=1;" parent="1" vertex="1">
          <mxGeometry x="200" y="320" width="80" height="80" as="geometry" />
        </mxCell>
        <mxCell id="v8HJ1O2Uti7qaJmyZi02-4" value="Alien Controller" style="rounded=1;whiteSpace=wrap;html=1;" parent="1" vertex="1">
          <mxGeometry x="320" y="320" width="80" height="80" as="geometry" />
        </mxCell>
        <mxCell id="v8HJ1O2Uti7qaJmyZi02-5" value="Alien Controller" style="rounded=1;whiteSpace=wrap;html=1;" parent="1" vertex="1">
          <mxGeometry x="440" y="320" width="80" height="80" as="geometry" />
        </mxCell>
        <mxCell id="v8HJ1O2Uti7qaJmyZi02-6" value="Alien Controller" style="rounded=1;whiteSpace=wrap;html=1;" parent="1" vertex="1">
          <mxGeometry x="560" y="320" width="80" height="80" as="geometry" />
        </mxCell>
        <mxCell id="v8HJ1O2Uti7qaJmyZi02-10" value="" style="endArrow=classic;html=1;entryX=0.125;entryY=0;entryDx=0;entryDy=0;exitX=0.023;exitY=1;exitDx=0;exitDy=0;exitPerimeter=0;entryPerimeter=0;" parent="1" source="v8HJ1O2Uti7qaJmyZi02-2" target="v8HJ1O2Uti7qaJmyZi02-3" edge="1">
          <mxGeometry relative="1" as="geometry">
            <mxPoint x="280" y="500" as="sourcePoint" />
            <mxPoint x="380" y="500" as="targetPoint" />
          </mxGeometry>
        </mxCell>
        <mxCell id="v8HJ1O2Uti7qaJmyZi02-11" value="Instructions" style="edgeLabel;resizable=0;html=1;align=center;verticalAlign=middle;" parent="v8HJ1O2Uti7qaJmyZi02-10" connectable="0" vertex="1">
          <mxGeometry relative="1" as="geometry">
            <mxPoint x="-0.05999999999999872" y="-4.710000000000001" as="offset" />
          </mxGeometry>
        </mxCell>
        <mxCell id="v8HJ1O2Uti7qaJmyZi02-14" value="" style="endArrow=classic;html=1;entryX=0.875;entryY=0;entryDx=0;entryDy=0;entryPerimeter=0;exitX=0.701;exitY=1.013;exitDx=0;exitDy=0;exitPerimeter=0;" parent="1" source="v8HJ1O2Uti7qaJmyZi02-2" target="v8HJ1O2Uti7qaJmyZi02-5" edge="1">
          <mxGeometry relative="1" as="geometry">
            <mxPoint x="404" y="180" as="sourcePoint" />
            <mxPoint x="260" y="340" as="targetPoint" />
          </mxGeometry>
        </mxCell>
        <mxCell id="v8HJ1O2Uti7qaJmyZi02-16" value="" style="endArrow=classic;html=1;exitX=0.977;exitY=1.013;exitDx=0;exitDy=0;exitPerimeter=0;" parent="1" source="v8HJ1O2Uti7qaJmyZi02-2" edge="1">
          <mxGeometry relative="1" as="geometry">
            <mxPoint x="414" y="190" as="sourcePoint" />
            <mxPoint x="628" y="319" as="targetPoint" />
          </mxGeometry>
        </mxCell>
        <mxCell id="v8HJ1O2Uti7qaJmyZi02-18" value="" style="endArrow=classic;html=1;dashed=1;exitX=0.9;exitY=-0.012;exitDx=0;exitDy=0;exitPerimeter=0;entryX=0.164;entryY=1;entryDx=0;entryDy=0;entryPerimeter=0;" parent="1" source="v8HJ1O2Uti7qaJmyZi02-3" target="v8HJ1O2Uti7qaJmyZi02-2" edge="1">
          <mxGeometry relative="1" as="geometry">
            <mxPoint x="370" y="390" as="sourcePoint" />
            <mxPoint x="320" y="170" as="targetPoint" />
          </mxGeometry>
        </mxCell>
        <mxCell id="v8HJ1O2Uti7qaJmyZi02-19" value="Events" style="edgeLabel;resizable=0;html=1;align=center;verticalAlign=middle;" parent="v8HJ1O2Uti7qaJmyZi02-18" connectable="0" vertex="1">
          <mxGeometry relative="1" as="geometry">
            <mxPoint x="-2.0799999999999983" y="15.63" as="offset" />
          </mxGeometry>
        </mxCell>
        <mxCell id="v8HJ1O2Uti7qaJmyZi02-23" value="" style="endArrow=classic;html=1;exitX=0.295;exitY=1;exitDx=0;exitDy=0;exitPerimeter=0;" parent="1" source="v8HJ1O2Uti7qaJmyZi02-2" edge="1">
          <mxGeometry relative="1" as="geometry">
            <mxPoint x="440" y="170" as="sourcePoint" />
            <mxPoint x="330" y="320" as="targetPoint" />
          </mxGeometry>
        </mxCell>
        <mxCell id="v8HJ1O2Uti7qaJmyZi02-24" value="" style="endArrow=classic;html=1;dashed=1;entryX=0.435;entryY=1.001;entryDx=0;entryDy=0;entryPerimeter=0;" parent="1" target="v8HJ1O2Uti7qaJmyZi02-2" edge="1">
          <mxGeometry relative="1" as="geometry">
            <mxPoint x="390" y="317" as="sourcePoint" />
            <mxPoint x="485" y="170" as="targetPoint" />
          </mxGeometry>
        </mxCell>
        <mxCell id="v8HJ1O2Uti7qaJmyZi02-26" value="" style="endArrow=classic;html=1;dashed=1;exitX=0.125;exitY=0;exitDx=0;exitDy=0;exitPerimeter=0;entryX=0.568;entryY=1;entryDx=0;entryDy=0;entryPerimeter=0;" parent="1" source="v8HJ1O2Uti7qaJmyZi02-5" target="v8HJ1O2Uti7qaJmyZi02-2" edge="1">
          <mxGeometry relative="1" as="geometry">
            <mxPoint x="400" y="327" as="sourcePoint" />
            <mxPoint x="450" y="160" as="targetPoint" />
          </mxGeometry>
        </mxCell>
        <mxCell id="v8HJ1O2Uti7qaJmyZi02-27" value="" style="endArrow=classic;html=1;dashed=1;exitX=0.128;exitY=-0.005;exitDx=0;exitDy=0;exitPerimeter=0;entryX=0.84;entryY=1.031;entryDx=0;entryDy=0;entryPerimeter=0;" parent="1" source="v8HJ1O2Uti7qaJmyZi02-6" target="v8HJ1O2Uti7qaJmyZi02-2" edge="1">
          <mxGeometry relative="1" as="geometry">
            <mxPoint x="410" y="337" as="sourcePoint" />
            <mxPoint x="570" y="163" as="targetPoint" />
          </mxGeometry>
        </mxCell>
        <mxCell id="v8HJ1O2Uti7qaJmyZi02-29" value="Other GameObjects (Player, Bullet, Border, Etc...)" style="rounded=1;whiteSpace=wrap;html=1;" parent="1" vertex="1">
          <mxGeometry x="200" y="480" width="440" height="80" as="geometry" />
        </mxCell>
        <mxCell id="TlILXQmuUHvs_lvBGfmx-1" value="Detect Collision" style="endArrow=classic;html=1;exitX=0.5;exitY=1;exitDx=0;exitDy=0;entryX=0.091;entryY=0;entryDx=0;entryDy=0;entryPerimeter=0;" edge="1" parent="1" source="v8HJ1O2Uti7qaJmyZi02-3" target="v8HJ1O2Uti7qaJmyZi02-29">
          <mxGeometry relative="1" as="geometry">
            <mxPoint x="339.79999999999995" y="170" as="sourcePoint" />
            <mxPoint x="340" y="330" as="targetPoint" />
          </mxGeometry>
        </mxCell>
        <mxCell id="TlILXQmuUHvs_lvBGfmx-4" value="" style="endArrow=classic;html=1;exitX=0.5;exitY=1;exitDx=0;exitDy=0;entryX=0.364;entryY=-0.037;entryDx=0;entryDy=0;entryPerimeter=0;" edge="1" parent="1" source="v8HJ1O2Uti7qaJmyZi02-4" target="v8HJ1O2Uti7qaJmyZi02-29">
          <mxGeometry width="50" height="50" relative="1" as="geometry">
            <mxPoint x="400" y="440" as="sourcePoint" />
            <mxPoint x="450" y="390" as="targetPoint" />
          </mxGeometry>
        </mxCell>
        <mxCell id="TlILXQmuUHvs_lvBGfmx-6" value="" style="endArrow=classic;html=1;exitX=0.5;exitY=1;exitDx=0;exitDy=0;entryX=0.636;entryY=0;entryDx=0;entryDy=0;entryPerimeter=0;" edge="1" parent="1" source="v8HJ1O2Uti7qaJmyZi02-5" target="v8HJ1O2Uti7qaJmyZi02-29">
          <mxGeometry width="50" height="50" relative="1" as="geometry">
            <mxPoint x="370" y="410" as="sourcePoint" />
            <mxPoint x="370.1600000000001" y="487.03999999999996" as="targetPoint" />
          </mxGeometry>
        </mxCell>
        <mxCell id="TlILXQmuUHvs_lvBGfmx-7" value="" style="endArrow=classic;html=1;entryX=0.91;entryY=-0.002;entryDx=0;entryDy=0;entryPerimeter=0;" edge="1" parent="1" target="v8HJ1O2Uti7qaJmyZi02-29">
          <mxGeometry width="50" height="50" relative="1" as="geometry">
            <mxPoint x="600" y="400" as="sourcePoint" />
            <mxPoint x="604" y="480" as="targetPoint" />
          </mxGeometry>
        </mxCell>
      </root>
    </mxGraphModel>
  </diagram>
</mxfile>
